<svg xmlns="http://www.w3.org/2000/svg" xmlns:xlink="http://www.w3.org/1999/xlink" width="400" zoomAndPan="magnify" viewBox="0 0 300 149.999998" height="200" preserveAspectRatio="xMidYMid meet" version="1.0"><defs><g/><clipPath id="7d660754ce"><path d="M 12.917969 9.371094 L 144.167969 9.371094 L 144.167969 140.621094 L 12.917969 140.621094 Z M 12.917969 9.371094 " clip-rule="nonzero"/></clipPath></defs><path fill="#004aad" d="M 39.496094 71.023438 L 20.0625 71.023438 L 20.0625 70.464844 L 39.496094 70.464844 L 39.496094 71.023438 " fill-opacity="1" fill-rule="nonzero"/><path fill="#004aad" d="M 39.496094 78.429688 L 20.0625 78.429688 L 20.0625 77.867188 L 39.496094 77.867188 L 39.496094 78.429688 " fill-opacity="1" fill-rule="nonzero"/><path fill="#004aad" d="M 137.335938 71.023438 L 117.90625 71.023438 L 117.90625 70.464844 L 137.335938 70.464844 L 137.335938 71.023438 " fill-opacity="1" fill-rule="nonzero"/><path fill="#004aad" d="M 137.335938 78.429688 L 117.90625 78.429688 L 117.90625 77.867188 L 137.335938 77.867188 L 137.335938 78.429688 " fill-opacity="1" fill-rule="nonzero"/><path fill="#004aad" d="M 121.011719 59.511719 C 114.53125 41.742188 97.464844 29.800781 78.542969 29.800781 C 59.617188 29.800781 42.550781 41.742188 36.070312 59.511719 L 35.597656 59.339844 C 42.15625 41.375 59.40625 29.304688 78.542969 29.304688 C 97.675781 29.304688 114.925781 41.375 121.484375 59.339844 L 121.011719 59.511719 " fill-opacity="1" fill-rule="nonzero"/><path fill="#004aad" d="M 78.542969 120.691406 C 59.40625 120.691406 42.152344 108.617188 35.601562 90.648438 L 36.074219 90.480469 C 42.550781 108.25 59.617188 120.191406 78.542969 120.191406 C 97.464844 120.191406 114.53125 108.25 121.011719 90.480469 L 121.484375 90.648438 C 114.925781 108.617188 97.675781 120.691406 78.542969 120.691406 " fill-opacity="1" fill-rule="nonzero"/><path fill="#004aad" d="M 39.878906 59.425781 C 46.0625 44.132812 61.058594 33.304688 78.542969 33.304688 C 96.03125 33.304688 111.019531 44.132812 117.203125 59.425781 L 119.367188 59.425781 C 113.082031 43 97.152344 31.296875 78.542969 31.296875 C 59.929688 31.296875 44 43 37.714844 59.425781 L 39.878906 59.425781 " fill-opacity="1" fill-rule="nonzero"/><path fill="#004aad" d="M 117.203125 90.566406 C 111.019531 105.859375 96.03125 116.6875 78.542969 116.6875 C 61.058594 116.6875 46.0625 105.859375 39.878906 90.566406 L 37.714844 90.566406 C 44 106.992188 59.929688 118.691406 78.542969 118.691406 C 97.152344 118.691406 113.082031 106.992188 119.367188 90.566406 L 117.203125 90.566406 " fill-opacity="1" fill-rule="nonzero"/><path fill="#004aad" d="M 78.632812 37.367188 L 80.1875 40.511719 L 83.660156 41.019531 L 81.144531 43.46875 L 81.734375 46.925781 L 78.632812 45.296875 L 75.527344 46.925781 L 76.121094 43.46875 L 73.609375 41.019531 L 77.082031 40.511719 L 78.632812 37.367188 " fill-opacity="1" fill-rule="nonzero"/><path fill="#004aad" d="M 92.769531 43.035156 L 93.726562 44.976562 L 95.875 45.285156 L 94.324219 46.800781 L 94.6875 48.941406 L 92.769531 47.929688 L 90.851562 48.941406 L 91.214844 46.800781 L 89.660156 45.285156 L 91.808594 44.976562 L 92.769531 43.035156 " fill-opacity="1" fill-rule="nonzero"/><path fill="#004aad" d="M 64.351562 43.035156 L 63.390625 44.976562 L 61.25 45.285156 L 62.800781 46.800781 L 62.433594 48.941406 L 64.351562 47.929688 L 66.273438 48.941406 L 65.902344 46.800781 L 67.457031 45.285156 L 65.308594 44.976562 L 64.351562 43.035156 " fill-opacity="1" fill-rule="nonzero"/><path fill="#004aad" d="M 78.132812 113.234375 L 79.683594 110.085938 L 83.15625 109.582031 L 80.644531 107.132812 L 81.238281 103.675781 L 78.132812 105.304688 L 75.023438 103.675781 L 75.621094 107.132812 L 73.105469 109.582031 L 76.578125 110.085938 L 78.132812 113.234375 " fill-opacity="1" fill-rule="nonzero"/><path fill="#004aad" d="M 92.265625 107.566406 L 93.226562 105.625 L 95.375 105.3125 L 93.820312 103.800781 L 94.1875 101.660156 L 92.265625 102.671875 L 90.347656 101.660156 L 90.714844 103.800781 L 89.164062 105.3125 L 91.308594 105.625 L 92.265625 107.566406 " fill-opacity="1" fill-rule="nonzero"/><path fill="#004aad" d="M 63.851562 107.566406 L 62.894531 105.625 L 60.746094 105.3125 L 62.300781 103.800781 L 61.929688 101.660156 L 63.851562 102.671875 L 65.769531 101.660156 L 65.40625 103.800781 L 66.953125 105.3125 L 64.8125 105.625 L 63.851562 107.566406 " fill-opacity="1" fill-rule="nonzero"/><path fill="#004aad" d="M 70.535156 80.164062 C 70.195312 80.121094 69.835938 80.078125 69.496094 80.035156 C 66 79.625 63.84375 77.820312 62.890625 76.820312 C 60.308594 74.097656 56.929688 72.3125 53.234375 71.726562 C 52.429688 71.597656 51.707031 71.519531 51.132812 71.480469 C 49.359375 71.335938 47.648438 72.148438 46.636719 73.613281 C 46.421875 73.925781 46.324219 74.132812 46.324219 74.132812 L 46.3125 75.652344 C 46.3125 75.652344 46.410156 75.441406 46.625 75.128906 C 47.636719 73.664062 49.347656 72.851562 51.121094 72.992188 C 52.664062 73.113281 55.253906 73.457031 57.691406 74.421875 C 59.53125 75.148438 61.144531 76.304688 62.4375 77.808594 C 62.980469 78.441406 65.34375 80.886719 69.78125 81.296875 C 69.820312 81.300781 69.867188 81.308594 69.90625 81.3125 C 71.765625 81.507812 109.171875 85.3125 112.816406 78.085938 C 107.519531 84.796875 75.632812 80.84375 70.535156 80.164062 " fill-opacity="1" fill-rule="nonzero"/><path fill="#004aad" d="M 69.898438 81.9375 L 69.769531 81.921875 C 65.222656 81.527344 62.765625 79.078125 62.121094 78.332031 C 60.855469 76.878906 59.304688 75.785156 57.519531 75.09375 C 55.1875 74.191406 52.722656 73.859375 51.066406 73.734375 C 50.957031 73.730469 50.847656 73.722656 50.734375 73.722656 C 49.425781 73.722656 48.195312 74.28125 47.332031 75.246094 C 47.160156 75.453125 46.34375 76.457031 46.5 77.371094 C 46.511719 77.4375 46.527344 77.503906 46.550781 77.574219 C 46.902344 78.902344 47.765625 80.773438 49.875 81.984375 C 53.558594 79.277344 56.347656 83.253906 56.347656 83.253906 L 58.5 83.335938 L 58.335938 81.984375 C 62.023438 79.277344 64.8125 83.253906 64.8125 83.253906 L 64.671875 83.574219 L 79.484375 84.140625 L 79.464844 84.070312 L 84.539062 84.183594 L 84.46875 84.332031 L 86.476562 84.410156 L 86.394531 84.179688 L 91.472656 84.179688 L 91.292969 84.59375 L 91.472656 84.597656 C 91.472656 84.597656 92.242188 84.589844 93.480469 84.527344 L 93.359375 84.261719 L 98.417969 83.820312 L 98.316406 84.136719 C 99.050781 84.054688 99.8125 83.957031 100.59375 83.84375 L 100.4375 83.582031 L 105.433594 82.648438 L 105.371094 82.910156 C 108.328125 82.15625 110.921875 81.066406 112.136719 79.480469 C 109.328125 81.800781 102.191406 82.972656 90.871094 82.972656 C 80.800781 82.972656 70.984375 82.039062 69.898438 81.9375 " fill-opacity="1" fill-rule="nonzero"/><path fill="#004aad" d="M 49.875 81.984375 C 49.871094 81.984375 49.871094 81.984375 49.871094 81.984375 L 50.136719 84.179688 L 55.941406 84.179688 L 56.347656 83.253906 L 54.609375 83.1875 C 52.570312 83.121094 51.035156 82.648438 49.875 81.984375 " fill-opacity="1" fill-rule="nonzero"/><path fill="#004aad" d="M 49.875 81.984375 C 51.035156 82.648438 52.570312 83.121094 54.609375 83.1875 L 56.347656 83.253906 C 56.347656 83.253906 53.558594 79.277344 49.875 81.984375 " fill-opacity="1" fill-rule="nonzero"/><path fill="#004aad" d="M 50.257812 85.722656 C 50.296875 86.050781 50.574219 86.289062 50.902344 86.289062 L 54.839844 86.289062 C 55.097656 86.289062 55.332031 86.140625 55.433594 85.902344 L 55.941406 84.742188 L 50.136719 84.742188 L 50.257812 85.722656 " fill-opacity="1" fill-rule="nonzero"/><path fill="#004aad" d="M 58.601562 84.179688 L 64.40625 84.179688 L 64.671875 83.574219 L 58.5 83.335938 L 58.601562 84.179688 " fill-opacity="1" fill-rule="nonzero"/><path fill="#004aad" d="M 58.335938 81.984375 L 58.5 83.335938 L 64.671875 83.574219 L 64.8125 83.253906 C 64.8125 83.253906 62.023438 79.277344 58.335938 81.984375 " fill-opacity="1" fill-rule="nonzero"/><path fill="#004aad" d="M 58.722656 85.722656 C 58.761719 86.050781 59.039062 86.289062 59.367188 86.289062 L 63.304688 86.289062 C 63.5625 86.289062 63.796875 86.140625 63.898438 85.902344 L 64.40625 84.742188 L 58.601562 84.742188 L 58.722656 85.722656 " fill-opacity="1" fill-rule="nonzero"/><path fill="#004aad" d="M 87.066406 86.085938 C 87.144531 86.296875 87.34375 86.433594 87.566406 86.433594 L 90.144531 86.433594 C 90.347656 86.433594 90.539062 86.3125 90.625 86.117188 L 91.292969 84.59375 L 86.476562 84.410156 L 87.066406 86.085938 " fill-opacity="1" fill-rule="nonzero"/><path fill="#004aad" d="M 86.394531 84.179688 L 86.476562 84.410156 L 91.292969 84.59375 L 91.472656 84.179688 L 86.394531 84.179688 " fill-opacity="1" fill-rule="nonzero"/><path fill="#004aad" d="M 80.09375 85.992188 C 80.167969 86.203125 80.363281 86.351562 80.582031 86.355469 L 83.160156 86.410156 C 83.367188 86.414062 83.5625 86.296875 83.648438 86.105469 L 84.46875 84.332031 L 79.484375 84.140625 L 80.09375 85.992188 " fill-opacity="1" fill-rule="nonzero"/><path fill="#004aad" d="M 79.464844 84.070312 L 79.484375 84.140625 L 84.46875 84.332031 L 84.539062 84.183594 L 79.464844 84.070312 " fill-opacity="1" fill-rule="nonzero"/><path fill="#004aad" d="M 94.199219 86.101562 C 94.292969 86.304688 94.5 86.429688 94.722656 86.410156 L 97.289062 86.183594 C 97.496094 86.167969 97.675781 86.027344 97.742188 85.828125 L 98.316406 84.136719 C 96.417969 84.347656 94.71875 84.460938 93.480469 84.527344 L 94.199219 86.101562 " fill-opacity="1" fill-rule="nonzero"/><path fill="#004aad" d="M 93.359375 84.261719 L 93.480469 84.527344 C 94.71875 84.460938 96.417969 84.347656 98.316406 84.136719 L 98.417969 83.820312 L 93.359375 84.261719 " fill-opacity="1" fill-rule="nonzero"/><path fill="#004aad" d="M 101.453125 85.335938 C 101.566406 85.527344 101.789062 85.628906 102.007812 85.589844 L 104.539062 85.117188 C 104.746094 85.074219 104.910156 84.921875 104.957031 84.714844 L 105.371094 82.910156 C 103.828125 83.304688 102.1875 83.613281 100.59375 83.84375 L 101.453125 85.335938 " fill-opacity="1" fill-rule="nonzero"/><path fill="#004aad" d="M 100.4375 83.582031 L 100.59375 83.84375 C 102.1875 83.613281 103.828125 83.304688 105.371094 82.910156 L 105.433594 82.648438 L 100.4375 83.582031 " fill-opacity="1" fill-rule="nonzero"/><path fill="#004aad" d="M 66.03125 64.710938 C 66.015625 64.722656 66 64.738281 65.980469 64.753906 L 66.035156 64.710938 L 66.03125 64.710938 " fill-opacity="1" fill-rule="nonzero"/><path fill="#004aad" d="M 58.101562 68.628906 C 58.105469 68.628906 58.105469 68.628906 58.105469 68.628906 C 59.765625 68.628906 61.652344 67.875 63.703125 66.386719 L 64.066406 66.125 C 55.253906 71.699219 51.804688 62.890625 51.804688 62.890625 C 52.605469 65.027344 54.496094 68.628906 58.101562 68.628906 " fill-opacity="1" fill-rule="nonzero"/><path fill="#004aad" d="M 74.742188 66.898438 C 75.023438 66.898438 75.25 66.652344 75.25 66.351562 L 75.25 61.351562 C 75.25 61.050781 75.023438 60.804688 74.742188 60.804688 C 74.460938 60.804688 74.230469 61.050781 74.230469 61.351562 L 74.230469 66.351562 C 74.230469 66.652344 74.460938 66.898438 74.742188 66.898438 " fill-opacity="1" fill-rule="nonzero"/><path fill="#004aad" d="M 78.796875 68.414062 C 79.078125 68.414062 79.3125 68.167969 79.3125 67.863281 L 79.3125 62.867188 C 79.3125 62.5625 79.078125 62.316406 78.796875 62.316406 C 78.515625 62.316406 78.285156 62.5625 78.285156 62.867188 L 78.285156 67.863281 C 78.285156 68.167969 78.515625 68.414062 78.796875 68.414062 " fill-opacity="1" fill-rule="nonzero"/><path fill="#004aad" d="M 82.851562 69.90625 C 83.140625 69.90625 83.367188 69.675781 83.367188 69.382812 L 83.367188 64.632812 C 83.367188 64.347656 83.140625 64.109375 82.851562 64.109375 C 82.570312 64.109375 82.347656 64.347656 82.347656 64.632812 L 82.347656 69.382812 C 82.347656 69.675781 82.570312 69.90625 82.851562 69.90625 " fill-opacity="1" fill-rule="nonzero"/><path fill="#004aad" d="M 86.914062 71.375 C 87.195312 71.375 87.425781 71.144531 87.425781 70.859375 L 87.425781 66.140625 C 87.425781 65.855469 87.195312 65.625 86.914062 65.625 C 86.632812 65.625 86.402344 65.855469 86.402344 66.140625 L 86.402344 70.859375 C 86.402344 71.144531 86.632812 71.375 86.914062 71.375 " fill-opacity="1" fill-rule="nonzero"/><path fill="#004aad" d="M 78.148438 63.425781 C 77.15625 62.992188 76.234375 62.582031 75.394531 62.203125 L 75.394531 64.511719 C 76.25 64.878906 77.171875 65.269531 78.148438 65.667969 L 78.148438 63.425781 " fill-opacity="1" fill-rule="nonzero"/><path fill="#004aad" d="M 86.261719 66.765625 C 85.328125 66.40625 84.40625 66.042969 83.507812 65.679688 L 83.507812 67.734375 C 84.425781 68.0625 85.351562 68.382812 86.261719 68.675781 L 86.261719 66.765625 " fill-opacity="1" fill-rule="nonzero"/><path fill="#004aad" d="M 82.203125 65.152344 C 81.253906 64.757812 80.332031 64.371094 79.453125 63.992188 L 79.453125 66.199219 C 80.347656 66.550781 81.269531 66.910156 82.203125 67.257812 L 82.203125 65.152344 " fill-opacity="1" fill-rule="nonzero"/><path fill="#004aad" d="M 90.316406 68.25 C 89.402344 67.929688 88.484375 67.597656 87.566406 67.257812 L 87.566406 69.078125 C 88.507812 69.367188 89.429688 69.617188 90.316406 69.828125 L 90.316406 68.25 " fill-opacity="1" fill-rule="nonzero"/><path fill="#004aad" d="M 70.210938 62.675781 C 70.917969 62.675781 71.605469 62.824219 72.246094 63.117188 C 72.785156 63.359375 73.40625 63.640625 74.085938 63.941406 L 74.085938 61.609375 C 72.882812 61.050781 71.921875 60.59375 71.28125 60.292969 C 71.085938 60.195312 70.863281 60.1875 70.65625 60.261719 C 70.453125 60.335938 70.289062 60.496094 70.199219 60.691406 C 69.6875 61.886719 68.386719 62.96875 68.386719 62.96875 L 68.421875 63.015625 C 68.984375 62.792969 69.589844 62.675781 70.210938 62.675781 " fill-opacity="1" fill-rule="nonzero"/><path fill="#004aad" d="M 95.0625 70.519531 C 95.8125 70.519531 96.429688 70.433594 96.902344 70.261719 C 95.210938 69.828125 93.429688 69.289062 91.625 68.691406 L 91.625 70.113281 C 92.898438 70.371094 94.066406 70.519531 95.0625 70.519531 " fill-opacity="1" fill-rule="nonzero"/><path fill="#004aad" d="M 90.96875 72.796875 C 91.25 72.796875 91.480469 72.585938 91.480469 72.324219 L 91.480469 68.035156 C 91.480469 67.773438 91.25 67.5625 90.96875 67.5625 C 90.6875 67.5625 90.460938 67.773438 90.460938 68.035156 L 90.460938 72.324219 C 90.460938 72.585938 90.6875 72.796875 90.96875 72.796875 " fill-opacity="1" fill-rule="nonzero"/><path fill="#004aad" d="M 90.085938 73.257812 C 89.78125 72.917969 89.886719 72.3125 90.316406 71.878906 L 90.316406 70.84375 C 90.316406 70.84375 90.3125 70.84375 90.3125 70.84375 C 90.179688 70.808594 90.035156 70.84375 89.929688 70.933594 C 88.34375 72.300781 85.261719 75.015625 82.851562 77.609375 C 82.703125 77.765625 82.648438 77.980469 82.6875 78.191406 C 82.734375 78.398438 82.878906 78.570312 83.074219 78.65625 L 83.996094 79.050781 C 84.65625 79.328125 85.425781 79.191406 85.945312 78.6875 C 87.574219 77.101562 90.773438 74.074219 93.316406 72.09375 C 93.449219 71.992188 93.507812 71.820312 93.464844 71.664062 C 93.421875 71.503906 93.285156 71.386719 93.121094 71.367188 C 92.652344 71.304688 92.148438 71.222656 91.625 71.121094 L 91.625 71.5 C 91.707031 71.535156 91.785156 71.589844 91.851562 71.664062 C 92.175781 72.015625 92.039062 72.664062 91.558594 73.105469 C 91.070312 73.542969 90.414062 73.617188 90.085938 73.257812 " fill-opacity="1" fill-rule="nonzero"/><path fill="#004aad" d="M 82.023438 69.070312 C 82.085938 69.011719 82.140625 68.960938 82.203125 68.914062 L 82.203125 68.308594 C 82.171875 68.300781 82.140625 68.289062 82.109375 68.28125 C 81.800781 68.160156 81.457031 68.226562 81.21875 68.445312 C 79.515625 69.929688 76.988281 72.226562 74.957031 74.421875 C 74.824219 74.558594 74.773438 74.761719 74.808594 74.945312 C 74.851562 75.132812 74.984375 75.289062 75.15625 75.363281 L 76.453125 75.917969 C 76.941406 76.125 77.511719 76.019531 77.890625 75.648438 C 79.222656 74.351562 81.945312 71.746094 84.367188 69.742188 C 84.480469 69.648438 84.535156 69.5 84.507812 69.351562 C 84.484375 69.207031 84.382812 69.085938 84.238281 69.039062 C 83.996094 68.957031 83.753906 68.867188 83.507812 68.78125 L 83.507812 68.875 C 83.816406 69.222656 83.710938 69.851562 83.257812 70.300781 C 82.796875 70.765625 82.144531 70.867188 81.800781 70.523438 C 81.457031 70.1875 81.5625 69.535156 82.023438 69.070312 " fill-opacity="1" fill-rule="nonzero"/><path fill="#004aad" d="M 113.03125 76.566406 C 112.75 71.257812 97.738281 70.46875 97.738281 70.46875 C 97.207031 70.835938 96.449219 71.023438 95.527344 71.070312 C 92.964844 72.558594 88.101562 77.179688 86.09375 79.132812 C 85.546875 79.667969 84.730469 79.820312 84.023438 79.519531 L 82.414062 78.832031 C 82.203125 78.742188 82.054688 78.5625 82.003906 78.34375 C 81.957031 78.125 82.019531 77.898438 82.167969 77.726562 C 84.550781 75.101562 87.734375 72.269531 89.484375 70.765625 C 89.578125 70.679688 89.621094 70.546875 89.589844 70.421875 C 89.566406 70.292969 89.46875 70.195312 89.339844 70.167969 C 88.757812 70.011719 88.164062 69.847656 87.566406 69.667969 L 87.566406 69.960938 C 87.605469 69.988281 87.640625 70.007812 87.679688 70.039062 C 88.046875 70.34375 88.007812 71.007812 87.585938 71.507812 C 87.160156 72.011719 86.519531 72.171875 86.148438 71.859375 C 85.78125 71.550781 85.820312 70.894531 86.242188 70.386719 C 86.246094 70.382812 86.257812 70.375 86.261719 70.371094 L 86.261719 69.265625 C 86.257812 69.265625 86.257812 69.265625 86.257812 69.265625 C 85.976562 69.175781 85.667969 69.234375 85.441406 69.414062 C 82.742188 71.554688 79.386719 74.773438 78.003906 76.128906 C 77.613281 76.507812 77.027344 76.621094 76.523438 76.40625 L 74.726562 75.640625 C 74.484375 75.539062 74.308594 75.324219 74.253906 75.066406 C 74.199219 74.8125 74.269531 74.542969 74.445312 74.351562 C 76.5 72.105469 79.105469 69.730469 80.882812 68.167969 C 81.023438 68.046875 81.085938 67.871094 81.054688 67.695312 C 81.023438 67.515625 80.898438 67.367188 80.730469 67.304688 C 80.300781 67.136719 79.875 66.972656 79.453125 66.804688 L 79.453125 67.25 C 79.765625 67.582031 79.691406 68.207031 79.265625 68.679688 C 78.824219 69.167969 78.175781 69.300781 77.824219 68.972656 C 77.464844 68.648438 77.53125 67.992188 77.972656 67.503906 C 78.027344 67.445312 78.085938 67.390625 78.148438 67.339844 L 78.148438 66.273438 C 78.003906 66.21875 77.855469 66.15625 77.710938 66.101562 C 77.710938 66.101562 77.714844 66.101562 77.714844 66.101562 C 77.722656 66.101562 77.722656 66.105469 77.722656 66.105469 C 77.722656 66.105469 77.722656 66.109375 77.722656 66.109375 C 74.9375 68.269531 71.308594 71.753906 69.898438 73.132812 C 69.535156 73.488281 68.996094 73.589844 68.527344 73.394531 L 66.597656 72.570312 C 66.371094 72.476562 66.207031 72.277344 66.15625 72.039062 C 66.105469 71.800781 66.171875 71.550781 66.335938 71.371094 C 68.753906 68.710938 71.980469 65.847656 73.691406 64.382812 C 73.070312 64.109375 72.507812 63.855469 72.015625 63.628906 C 70.59375 62.984375 68.933594 63.148438 67.667969 64.054688 L 63.949219 66.730469 C 53.726562 74.132812 50.902344 61.441406 50.902344 61.441406 C 48.609375 60.558594 47.015625 69.859375 46.550781 72.984375 C 47.570312 71.671875 49.144531 70.894531 50.820312 70.894531 C 50.964844 70.894531 51.105469 70.90625 51.25 70.914062 C 51.957031 70.972656 52.675781 71.054688 53.378906 71.164062 C 57.191406 71.769531 60.617188 73.574219 63.277344 76.386719 C 64.21875 77.371094 66.28125 79.082031 69.632812 79.472656 C 69.96875 79.511719 70.332031 79.558594 70.671875 79.605469 C 73.789062 80.019531 84.734375 81.375 94.855469 81.375 C 94.855469 81.375 94.859375 81.375 94.859375 81.375 C 102.921875 81.375 108.515625 80.488281 111.257812 78.800781 C 111.523438 78.625 113.0625 77.570312 113.03125 76.566406 " fill-opacity="1" fill-rule="nonzero"/><path fill="#004aad" d="M 73.804688 67.324219 C 73.464844 66.988281 73.570312 66.335938 74.039062 65.875 C 74.046875 65.863281 74.054688 65.859375 74.0625 65.847656 C 74.082031 65.832031 74.085938 65.8125 74.085938 65.792969 L 74.085938 65.019531 C 73.890625 64.929688 73.660156 64.96875 73.496094 65.109375 C 71.71875 66.652344 68.976562 69.125 66.816406 71.472656 C 66.703125 71.589844 66.65625 71.761719 66.691406 71.917969 C 66.730469 72.078125 66.835938 72.21875 66.984375 72.277344 L 68.339844 72.851562 C 68.863281 73.078125 69.46875 72.964844 69.878906 72.570312 C 71.234375 71.242188 73.964844 68.644531 76.371094 66.648438 C 76.480469 66.558594 76.535156 66.417969 76.515625 66.273438 C 76.496094 66.132812 76.402344 66.011719 76.269531 65.957031 C 75.988281 65.839844 75.710938 65.722656 75.429688 65.597656 C 75.457031 65.617188 75.476562 65.640625 75.496094 65.660156 C 75.835938 66.003906 75.730469 66.652344 75.265625 67.117188 C 74.792969 67.578125 74.144531 67.667969 73.804688 67.324219 " fill-opacity="1" fill-rule="nonzero"/><g clip-path="url(#7d660754ce)"><path fill="#004aad" d="M 142.808594 76.441406 L 142.089844 75.707031 L 141.082031 75.882812 L 141.558594 74.96875 L 141.082031 74.0625 L 142.089844 74.238281 L 142.808594 73.5 L 142.957031 74.519531 L 143.878906 74.96875 L 142.957031 75.425781 Z M 78.542969 137.113281 C 44.289062 137.113281 16.421875 109.25 16.421875 74.996094 C 16.421875 40.742188 44.289062 12.878906 78.542969 12.878906 C 112.792969 12.878906 140.660156 40.742188 140.660156 74.996094 C 140.660156 109.25 112.792969 137.113281 78.542969 137.113281 Z M 79.085938 139.3125 L 78.632812 140.234375 L 78.175781 139.3125 L 77.164062 139.167969 L 77.894531 138.453125 L 77.722656 137.4375 L 78.632812 137.914062 L 79.542969 137.4375 L 79.367188 138.453125 L 80.105469 139.167969 Z M 16.039062 75.882812 L 15.027344 75.707031 L 14.3125 76.441406 L 14.164062 75.425781 L 13.238281 74.96875 L 14.164062 74.519531 L 14.3125 73.5 L 15.027344 74.238281 L 16.039062 74.0625 L 15.5625 74.96875 Z M 78.175781 10.542969 L 78.632812 9.621094 L 79.085938 10.542969 L 80.105469 10.695312 L 79.367188 11.410156 L 79.542969 12.425781 L 78.632812 11.945312 L 77.722656 12.425781 L 77.894531 11.410156 L 77.164062 10.695312 Z M 78.542969 9.371094 C 42.355469 9.371094 12.917969 38.808594 12.917969 74.996094 C 12.917969 111.183594 42.355469 140.621094 78.542969 140.621094 C 114.726562 140.621094 144.167969 111.183594 144.167969 74.996094 C 144.167969 38.808594 114.726562 9.371094 78.542969 9.371094 " fill-opacity="1" fill-rule="nonzero"/></g><g fill="#0057ff" fill-opacity="0.302"><g transform="translate(156.106985, 107.19041)"><g><path d="M 3.421875 0 L 3.421875 -59.390625 L 21.796875 -59.390625 C 23.898438 -59.390625 25.707031 -58.601562 27.21875 -57.03125 C 28.726562 -55.46875 29.484375 -53.546875 29.484375 -51.265625 L 29.484375 -38.453125 C 29.484375 -36.578125 29.140625 -34.984375 28.453125 -33.671875 C 27.992188 -32.703125 27.28125 -31.875 26.3125 -31.1875 L 29.484375 -31.1875 L 29.484375 -8.125 C 29.484375 -5.84375 28.726562 -3.914062 27.21875 -2.34375 C 25.707031 -0.78125 23.898438 0 21.796875 0 Z M 20.078125 -38.453125 L 20.078125 -50.421875 L 12.8125 -50.421875 L 12.8125 -34.609375 Z M 20.078125 -27.859375 L 12.8125 -24.09375 L 12.8125 -8.96875 L 20.078125 -8.96875 Z M 20.078125 -27.859375 "/></g></g></g><g fill="#0057ff" fill-opacity="0.302"><g transform="translate(189.006987, 107.19041)"><g><path d="M 29.484375 -51.265625 L 29.484375 -8.125 C 29.484375 -5.84375 28.726562 -3.914062 27.21875 -2.34375 C 25.707031 -0.78125 23.898438 0 21.796875 0 L 11.109375 0 C 9.003906 0 7.195312 -0.796875 5.6875 -2.390625 C 4.175781 -3.984375 3.421875 -5.894531 3.421875 -8.125 L 3.421875 -51.265625 C 3.421875 -53.546875 4.175781 -55.46875 5.6875 -57.03125 C 7.195312 -58.601562 9.003906 -59.390625 11.109375 -59.390625 L 21.796875 -59.390625 C 23.898438 -59.390625 25.707031 -58.601562 27.21875 -57.03125 C 28.726562 -55.46875 29.484375 -53.546875 29.484375 -51.265625 Z M 20.078125 -8.96875 L 20.078125 -50.421875 L 12.8125 -50.421875 L 12.8125 -8.96875 Z M 20.078125 -8.96875 "/></g></g></g><g fill="#0057ff" fill-opacity="0.302"><g transform="translate(221.906989, 107.19041)"><g><path d="M 29.484375 -51.265625 L 29.484375 -8.125 C 29.484375 -5.84375 28.726562 -3.914062 27.21875 -2.34375 C 25.707031 -0.78125 23.898438 0 21.796875 0 L 11.109375 0 C 9.003906 0 7.195312 -0.796875 5.6875 -2.390625 C 4.175781 -3.984375 3.421875 -5.894531 3.421875 -8.125 L 3.421875 -51.265625 C 3.421875 -53.546875 4.175781 -55.46875 5.6875 -57.03125 C 7.195312 -58.601562 9.003906 -59.390625 11.109375 -59.390625 L 21.796875 -59.390625 C 23.898438 -59.390625 25.707031 -58.601562 27.21875 -57.03125 C 28.726562 -55.46875 29.484375 -53.546875 29.484375 -51.265625 Z M 20.078125 -8.96875 L 20.078125 -50.421875 L 12.8125 -50.421875 L 12.8125 -8.96875 Z M 20.078125 -8.96875 "/></g></g></g><g fill="#0057ff" fill-opacity="0.302"><g transform="translate(254.806991, 107.19041)"><g><path d="M 10.6875 0 L 10.6875 -50.421875 L 1.28125 -50.421875 L 1.28125 -59.390625 L 29.484375 -59.390625 L 29.484375 -50.421875 L 20.078125 -50.421875 L 20.078125 0 Z M 10.6875 0 "/></g></g></g><g fill="#0057ff" fill-opacity="0.502"><g transform="translate(153.291687, 105.068928)"><g><path d="M 3.421875 0 L 3.421875 -59.390625 L 21.796875 -59.390625 C 23.898438 -59.390625 25.707031 -58.601562 27.21875 -57.03125 C 28.726562 -55.46875 29.484375 -53.546875 29.484375 -51.265625 L 29.484375 -38.453125 C 29.484375 -36.578125 29.140625 -34.984375 28.453125 -33.671875 C 27.992188 -32.703125 27.28125 -31.875 26.3125 -31.1875 L 29.484375 -31.1875 L 29.484375 -8.125 C 29.484375 -5.84375 28.726562 -3.914062 27.21875 -2.34375 C 25.707031 -0.78125 23.898438 0 21.796875 0 Z M 20.078125 -38.453125 L 20.078125 -50.421875 L 12.8125 -50.421875 L 12.8125 -34.609375 Z M 20.078125 -27.859375 L 12.8125 -24.09375 L 12.8125 -8.96875 L 20.078125 -8.96875 Z M 20.078125 -27.859375 "/></g></g></g><g fill="#0057ff" fill-opacity="0.502"><g transform="translate(186.191689, 105.068928)"><g><path d="M 29.484375 -51.265625 L 29.484375 -8.125 C 29.484375 -5.84375 28.726562 -3.914062 27.21875 -2.34375 C 25.707031 -0.78125 23.898438 0 21.796875 0 L 11.109375 0 C 9.003906 0 7.195312 -0.796875 5.6875 -2.390625 C 4.175781 -3.984375 3.421875 -5.894531 3.421875 -8.125 L 3.421875 -51.265625 C 3.421875 -53.546875 4.175781 -55.46875 5.6875 -57.03125 C 7.195312 -58.601562 9.003906 -59.390625 11.109375 -59.390625 L 21.796875 -59.390625 C 23.898438 -59.390625 25.707031 -58.601562 27.21875 -57.03125 C 28.726562 -55.46875 29.484375 -53.546875 29.484375 -51.265625 Z M 20.078125 -8.96875 L 20.078125 -50.421875 L 12.8125 -50.421875 L 12.8125 -8.96875 Z M 20.078125 -8.96875 "/></g></g></g><g fill="#0057ff" fill-opacity="0.502"><g transform="translate(219.091691, 105.068928)"><g><path d="M 29.484375 -51.265625 L 29.484375 -8.125 C 29.484375 -5.84375 28.726562 -3.914062 27.21875 -2.34375 C 25.707031 -0.78125 23.898438 0 21.796875 0 L 11.109375 0 C 9.003906 0 7.195312 -0.796875 5.6875 -2.390625 C 4.175781 -3.984375 3.421875 -5.894531 3.421875 -8.125 L 3.421875 -51.265625 C 3.421875 -53.546875 4.175781 -55.46875 5.6875 -57.03125 C 7.195312 -58.601562 9.003906 -59.390625 11.109375 -59.390625 L 21.796875 -59.390625 C 23.898438 -59.390625 25.707031 -58.601562 27.21875 -57.03125 C 28.726562 -55.46875 29.484375 -53.546875 29.484375 -51.265625 Z M 20.078125 -8.96875 L 20.078125 -50.421875 L 12.8125 -50.421875 L 12.8125 -8.96875 Z M 20.078125 -8.96875 "/></g></g></g><g fill="#0057ff" fill-opacity="0.502"><g transform="translate(251.991692, 105.068928)"><g><path d="M 10.6875 0 L 10.6875 -50.421875 L 1.28125 -50.421875 L 1.28125 -59.390625 L 29.484375 -59.390625 L 29.484375 -50.421875 L 20.078125 -50.421875 L 20.078125 0 Z M 10.6875 0 "/></g></g></g><g fill="#004aad" fill-opacity="1"><g transform="translate(150.476389, 102.947451)"><g><path d="M 3.421875 0 L 3.421875 -59.390625 L 21.796875 -59.390625 C 23.898438 -59.390625 25.707031 -58.601562 27.21875 -57.03125 C 28.726562 -55.46875 29.484375 -53.546875 29.484375 -51.265625 L 29.484375 -38.453125 C 29.484375 -36.578125 29.140625 -34.984375 28.453125 -33.671875 C 27.992188 -32.703125 27.28125 -31.875 26.3125 -31.1875 L 29.484375 -31.1875 L 29.484375 -8.125 C 29.484375 -5.84375 28.726562 -3.914062 27.21875 -2.34375 C 25.707031 -0.78125 23.898438 0 21.796875 0 Z M 20.078125 -38.453125 L 20.078125 -50.421875 L 12.8125 -50.421875 L 12.8125 -34.609375 Z M 20.078125 -27.859375 L 12.8125 -24.09375 L 12.8125 -8.96875 L 20.078125 -8.96875 Z M 20.078125 -27.859375 "/></g></g></g><g fill="#004aad" fill-opacity="1"><g transform="translate(183.376391, 102.947451)"><g><path d="M 29.484375 -51.265625 L 29.484375 -8.125 C 29.484375 -5.84375 28.726562 -3.914062 27.21875 -2.34375 C 25.707031 -0.78125 23.898438 0 21.796875 0 L 11.109375 0 C 9.003906 0 7.195312 -0.796875 5.6875 -2.390625 C 4.175781 -3.984375 3.421875 -5.894531 3.421875 -8.125 L 3.421875 -51.265625 C 3.421875 -53.546875 4.175781 -55.46875 5.6875 -57.03125 C 7.195312 -58.601562 9.003906 -59.390625 11.109375 -59.390625 L 21.796875 -59.390625 C 23.898438 -59.390625 25.707031 -58.601562 27.21875 -57.03125 C 28.726562 -55.46875 29.484375 -53.546875 29.484375 -51.265625 Z M 20.078125 -8.96875 L 20.078125 -50.421875 L 12.8125 -50.421875 L 12.8125 -8.96875 Z M 20.078125 -8.96875 "/></g></g></g><g fill="#004aad" fill-opacity="1"><g transform="translate(216.276392, 102.947451)"><g><path d="M 29.484375 -51.265625 L 29.484375 -8.125 C 29.484375 -5.84375 28.726562 -3.914062 27.21875 -2.34375 C 25.707031 -0.78125 23.898438 0 21.796875 0 L 11.109375 0 C 9.003906 0 7.195312 -0.796875 5.6875 -2.390625 C 4.175781 -3.984375 3.421875 -5.894531 3.421875 -8.125 L 3.421875 -51.265625 C 3.421875 -53.546875 4.175781 -55.46875 5.6875 -57.03125 C 7.195312 -58.601562 9.003906 -59.390625 11.109375 -59.390625 L 21.796875 -59.390625 C 23.898438 -59.390625 25.707031 -58.601562 27.21875 -57.03125 C 28.726562 -55.46875 29.484375 -53.546875 29.484375 -51.265625 Z M 20.078125 -8.96875 L 20.078125 -50.421875 L 12.8125 -50.421875 L 12.8125 -8.96875 Z M 20.078125 -8.96875 "/></g></g></g><g fill="#004aad" fill-opacity="1"><g transform="translate(249.176394, 102.947451)"><g><path d="M 10.6875 0 L 10.6875 -50.421875 L 1.28125 -50.421875 L 1.28125 -59.390625 L 29.484375 -59.390625 L 29.484375 -50.421875 L 20.078125 -50.421875 L 20.078125 0 Z M 10.6875 0 "/></g></g></g></svg>